<svg width="19" height="20" viewBox="0 0 19 20" fill="none" xmlns="http://www.w3.org/2000/svg">
<path d="M9.41992 0.37516C10.4042 0.37516 11.1257 1.9546 12.0137 2.24167C12.9341 2.53926 14.4485 1.69393 15.2147 2.24897C15.9886 2.80958 15.6461 4.50819 16.2091 5.27836C16.7666 6.04103 18.4985 6.23856 18.7974 7.15475C19.0856 8.03872 17.8106 9.20784 17.8106 10.1876C17.8106 11.1673 19.0856 12.3364 18.7972 13.2204C18.4985 14.1366 16.7666 14.3341 16.2088 15.0968C15.6456 15.867 15.9884 17.566 15.2145 18.1262C14.4483 18.6812 12.9339 17.8359 12.0135 18.1335C11.1257 18.4206 10.4042 20 9.41992 20C8.43569 20 7.71417 18.4206 6.82614 18.1335C5.90575 17.8359 4.39133 18.6812 3.62517 18.1262C2.85124 17.5656 3.19377 15.867 2.63079 15.0968C2.07321 14.3341 0.341363 14.1366 0.042404 13.2204C-0.24577 12.3364 1.02923 11.1673 1.02923 10.1876C1.02923 9.20784 -0.24577 8.03872 0.0426196 7.15475C0.341363 6.23856 2.07321 6.04103 2.63101 5.27836C3.1942 4.50819 2.85145 2.80916 3.62538 2.24897C4.39154 1.69393 5.90597 2.53926 6.82636 2.24167C7.71417 1.9546 8.43569 0.37516 9.41992 0.37516Z" fill="#562E08"/>
<path d="M4.60017 10.065L9.91783 12.8899C9.97621 12.9209 10.0416 12.9363 10.1077 12.9346C10.1738 12.9329 10.2383 12.9142 10.295 12.8803C10.3517 12.8463 10.3987 12.7984 10.4314 12.741C10.4641 12.6836 10.4814 12.6187 10.4816 12.5527L10.4816 11.0678C10.4816 11.0174 10.4915 10.9676 10.5108 10.921C10.53 10.8745 10.5583 10.8323 10.5939 10.7967C10.6295 10.761 10.6718 10.7328 10.7184 10.7135C10.7649 10.6943 10.8148 10.6843 10.8652 10.6843L14.0598 10.6843C14.4548 10.6843 14.592 10.1599 14.2473 9.9669L8.98062 7.01756C8.92225 6.98495 8.85637 6.96813 8.7895 6.96879C8.72262 6.96944 8.65708 6.98755 8.59937 7.0213C8.54166 7.05505 8.49377 7.10329 8.46047 7.16122C8.42716 7.21916 8.40958 7.28478 8.40948 7.3516L8.40775 8.96136C8.40758 9.0629 8.3671 9.16022 8.29519 9.23198C8.22329 9.30374 8.12582 9.34407 8.02419 9.34413L4.78041 9.34413C4.38065 9.34348 4.24747 9.87762 4.60017 10.065Z" fill="white"/>
</svg>
